<svg width="512" height="512" xmlns="http://www.w3.org/2000/svg" xmlns:xlink="http://www.w3.org/1999/xlink" xml:space="preserve" overflow="hidden"><g transform="translate(-128 -158)"><path d="M405.268 387.95 405.268 387.202C405.115 387.453 404.903 387.703 404.77 387.95L405.268 387.95Z" fill="#333333" fill-rule="evenodd"/><path d="M128 158 128 670 640 670 640 158 128 158ZM287.251 583.356 211.288 583.356 211.288 354.817 287.251 354.817 287.251 583.356ZM249.27 323.625 248.768 323.625C223.286 323.625 206.769 306.069 206.769 284.126 206.769 261.702 223.769 244.644 249.767 244.644 275.771 244.644 291.751 261.702 292.248 284.126 292.248 306.069 275.771 323.625 249.27 323.625ZM561.231 583.356 485.248 583.356 485.248 461.087C485.248 430.377 474.27 409.415 446.769 409.415 425.767 409.415 413.286 423.529 407.788 437.201 405.79 442.085 405.268 448.873 405.268 455.722L405.268 583.357 329.27 583.357C329.27 583.357 330.288 376.258 329.27 354.818L405.268 354.818 405.268 387.203C415.365 371.666 433.384 349.453 473.747 349.453 523.751 349.453 561.231 382.109 561.231 452.301L561.231 583.356Z" fill="#333333" fill-rule="evenodd"/></g></svg>